<svg xmlns="http://www.w3.org/2000/svg" xmlns:xlink="http://www.w3.org/1999/xlink" width="30.344" height="30" viewBox="0 0 30.344 30">
  <metadata><?xpacket begin="﻿" id="W5M0MpCehiHzreSzNTczkc9d"?>
<x:xmpmeta xmlns:x="adobe:ns:meta/" x:xmptk="Adobe XMP Core 5.6-c138 79.159824, 2016/09/14-01:09:01        ">
   <rdf:RDF xmlns:rdf="http://www.w3.org/1999/02/22-rdf-syntax-ns#">
      <rdf:Description rdf:about=""/>
   </rdf:RDF>
</x:xmpmeta>
                                                                                                    
                                                                                                    
                                                                                                    
                                                                                                    
                                                                                                    
                                                                                                    
                                                                                                    
                                                                                                    
                                                                                                    
                                                                                                    
                                                                                                    
                                                                                                    
                                                                                                    
                                                                                                    
                                                                                                    
                                                                                                    
                                                                                                    
                                                                                                    
                                                                                                    
                                                                                                    
                           
<?xpacket end="w"?></metadata>
<defs>
    <style>
      .cls-1 {
        fill: #4463a6;
        fill-rule: evenodd;
        filter: url(#filter);
      }
    </style>
    <filter id="filter" x="626" y="26" width="30.344" height="30" filterUnits="userSpaceOnUse">
      <feFlood result="flood" flood-color="#9c9c9c"/>
      <feComposite result="composite" operator="in" in2="SourceGraphic"/>
      <feBlend result="blend" in2="SourceGraphic"/>
    </filter>
  </defs>
  <path id="FaceBook" class="cls-1" d="M641.171,26A15,15,0,1,1,626,41,15.086,15.086,0,0,1,641.171,26Zm-3.314,14.9h1.272v6.2h2.823v-6.2h1.994l0.542-2.3h-2.653a1.714,1.714,0,0,1,.186-1.316,1.553,1.553,0,0,1,1.033-.325,2.8,2.8,0,0,1,1.333.5l0.572-2.029a8.308,8.308,0,0,0-2.36-.519,4.284,4.284,0,0,0-2,.4,2.279,2.279,0,0,0-1.069,1.17,3.829,3.829,0,0,0-.327,1.814v0.3H637.9Z" transform="translate(-626 -26)"/>
</svg>
