<svg xmlns="http://www.w3.org/2000/svg" xmlns:xlink="http://www.w3.org/1999/xlink" width="30.344" height="30" viewBox="0 0 30.344 30">
  <metadata><?xpacket begin="﻿" id="W5M0MpCehiHzreSzNTczkc9d"?>
<x:xmpmeta xmlns:x="adobe:ns:meta/" x:xmptk="Adobe XMP Core 5.6-c138 79.159824, 2016/09/14-01:09:01        ">
   <rdf:RDF xmlns:rdf="http://www.w3.org/1999/02/22-rdf-syntax-ns#">
      <rdf:Description rdf:about=""/>
   </rdf:RDF>
</x:xmpmeta>
                                                                                                    
                                                                                                    
                                                                                                    
                                                                                                    
                                                                                                    
                                                                                                    
                                                                                                    
                                                                                                    
                                                                                                    
                                                                                                    
                                                                                                    
                                                                                                    
                                                                                                    
                                                                                                    
                                                                                                    
                                                                                                    
                                                                                                    
                                                                                                    
                                                                                                    
                                                                                                    
                           
<?xpacket end="w"?></metadata>
<defs>
    <style>
      .cls-1 {
        fill: #6ac4d9;
        fill-rule: evenodd;
        filter: url(#filter);
      }
    </style>
    <filter id="filter" x="702.375" y="26" width="30.344" height="30" filterUnits="userSpaceOnUse">
      <feFlood result="flood" flood-color="#9c9c9c"/>
      <feComposite result="composite" operator="in" in2="SourceGraphic"/>
      <feBlend result="blend" in2="SourceGraphic"/>
    </filter>
  </defs>
  <path id="Twitter" class="cls-1" d="M717.552,26a15,15,0,1,1-15.171,15A15.087,15.087,0,0,1,717.552,26Zm-6.98,17.04a13.264,13.264,0,0,0,2.625.612A1.491,1.491,0,0,0,714.932,43a0.311,0.311,0,0,0-.084-0.482s-2.942-.324-2.718-0.835c0,0-.014-0.289.392-0.223,0,0,.568-1.031.343-1.163,0,0-.35-0.289-0.07-0.315,0,0,.825.1,1.091,0.17,0,0,.182-0.062.014-0.18a0.9,0.9,0,0,1-.392-0.436s0.1-.223.546-0.039c0,0,.25-0.253.124-0.384,0,0-.378-0.21-0.2-0.38,0,0,.854-1,1.805.58,0,0,.239.3,0.267,0.013,0,0,1.164-3.1,2.691-3.35a0.869,0.869,0,0,0,.588-0.052A0.778,0.778,0,0,1,719.9,35.9a0.229,0.229,0,0,0,.308.078s0.6-.223.421,0.144a2.777,2.777,0,0,1-.787.609c-0.211.013-.168,0.278,0.014,0.3,0,0,2.52.17,2.52,1.926,0,0,.147.417,0.623-0.016a5.333,5.333,0,0,1,.9-0.45s0.2-.118.168,0.158a3.286,3.286,0,0,1-1.051,1.075s-0.322.38,0.14,0.3a2.97,2.97,0,0,0,.66-0.2s0.546-.249.294,0.2a7.216,7.216,0,0,1-1.4.7,0.212,0.212,0,0,0-.168.183s-0.154,4.785-6.571,4.785a7.883,7.883,0,0,1-5.315-2.311S710.25,42.973,710.572,43.039Z" transform="translate(-702.375 -26)"/>
</svg>
