<svg xmlns="http://www.w3.org/2000/svg" xmlns:xlink="http://www.w3.org/1999/xlink" width="30.343" height="30" viewBox="0 0 30.343 30">
  <metadata><?xpacket begin="﻿" id="W5M0MpCehiHzreSzNTczkc9d"?>
<x:xmpmeta xmlns:x="adobe:ns:meta/" x:xmptk="Adobe XMP Core 5.6-c138 79.159824, 2016/09/14-01:09:01        ">
   <rdf:RDF xmlns:rdf="http://www.w3.org/1999/02/22-rdf-syntax-ns#">
      <rdf:Description rdf:about=""/>
   </rdf:RDF>
</x:xmpmeta>
                                                                                                    
                                                                                                    
                                                                                                    
                                                                                                    
                                                                                                    
                                                                                                    
                                                                                                    
                                                                                                    
                                                                                                    
                                                                                                    
                                                                                                    
                                                                                                    
                                                                                                    
                                                                                                    
                                                                                                    
                                                                                                    
                                                                                                    
                                                                                                    
                                                                                                    
                                                                                                    
                           
<?xpacket end="w"?></metadata>
<defs>
    <style>
      .cls-1 {
        fill: #5d99c3;
        fill-rule: evenodd;
        filter: url(#filter);
      }
    </style>
    <filter id="filter" x="663.938" y="26" width="30.343" height="30" filterUnits="userSpaceOnUse">
      <feFlood result="flood" flood-color="#9c9c9c"/>
      <feComposite result="composite" operator="in" in2="SourceGraphic"/>
      <feBlend result="blend" in2="SourceGraphic"/>
    </filter>
  </defs>
  <path id="vk" class="cls-1" d="M679.1,26a15,15,0,1,1-15.171,15A15.086,15.086,0,0,1,679.1,26Zm2.8,14.671V40.607a2.373,2.373,0,0,0,1.468-2.421A2.739,2.739,0,0,0,681,35.471c-0.3-.044-3.507-0.1-4.766-0.1a0.865,0.865,0,0,0-.936.983V45.7a1.024,1.024,0,0,0,.936.927h3.343c-0.894,0,4.443.265,4.262-3.281A2.774,2.774,0,0,0,681.9,40.67Zm-2.659-.685c-0.477.025-1.088,0.076-1.088,0.076V37.249s0.284-.02.948,0a1.216,1.216,0,0,1,1.4,1.437A1.253,1.253,0,0,1,679.238,39.985Zm0.334,4.764H678.15V41.937s0.864-.014,1.422,0A1.382,1.382,0,0,1,681,43.343,1.346,1.346,0,0,1,679.572,44.749Z" transform="translate(-663.938 -26)"/>
</svg>
